<mxfile host="Electron" modified="2023-06-01T13:49:20.010Z" agent="Mozilla/5.0 (X11; Linux x86_64) AppleWebKit/537.36 (KHTML, like Gecko) draw.io/21.2.8 Chrome/112.0.5615.165 Electron/24.2.0 Safari/537.36" etag="iSX3M8GnZtAZgLBiM68-" version="21.2.8" type="device">
  <diagram name="第 1 页" id="cvGLXGxciO-KjoF6c1yC">
    <mxGraphModel dx="954" dy="676" grid="1" gridSize="10" guides="1" tooltips="1" connect="1" arrows="1" fold="1" page="1" pageScale="1" pageWidth="827" pageHeight="1169" math="0" shadow="0">
      <root>
        <mxCell id="0" />
        <mxCell id="1" parent="0" />
        <mxCell id="d0MRfEor1ovRDdK-iBDy-2" value="8" style="rounded=1;whiteSpace=wrap;html=1;" vertex="1" parent="1">
          <mxGeometry x="120" y="290" width="40" height="40" as="geometry" />
        </mxCell>
        <mxCell id="d0MRfEor1ovRDdK-iBDy-3" value="9" style="rounded=1;whiteSpace=wrap;html=1;" vertex="1" parent="1">
          <mxGeometry x="160" y="290" width="40" height="40" as="geometry" />
        </mxCell>
        <mxCell id="d0MRfEor1ovRDdK-iBDy-4" value="0" style="rounded=1;whiteSpace=wrap;html=1;" vertex="1" parent="1">
          <mxGeometry x="200" y="290" width="40" height="40" as="geometry" />
        </mxCell>
        <mxCell id="d0MRfEor1ovRDdK-iBDy-5" value="." style="rounded=1;whiteSpace=wrap;html=1;" vertex="1" parent="1">
          <mxGeometry x="360" y="290" width="40" height="40" as="geometry" />
        </mxCell>
        <mxCell id="d0MRfEor1ovRDdK-iBDy-6" value="." style="rounded=1;whiteSpace=wrap;html=1;" vertex="1" parent="1">
          <mxGeometry x="320" y="290" width="40" height="40" as="geometry" />
        </mxCell>
        <mxCell id="d0MRfEor1ovRDdK-iBDy-7" value="." style="rounded=1;whiteSpace=wrap;html=1;" vertex="1" parent="1">
          <mxGeometry x="280" y="290" width="40" height="40" as="geometry" />
        </mxCell>
        <mxCell id="d0MRfEor1ovRDdK-iBDy-8" value="." style="rounded=1;whiteSpace=wrap;html=1;" vertex="1" parent="1">
          <mxGeometry x="240" y="290" width="40" height="40" as="geometry" />
        </mxCell>
        <mxCell id="d0MRfEor1ovRDdK-iBDy-13" style="edgeStyle=orthogonalEdgeStyle;rounded=0;orthogonalLoop=1;jettySize=auto;html=1;exitX=0.5;exitY=1;exitDx=0;exitDy=0;entryX=0.5;entryY=0;entryDx=0;entryDy=0;" edge="1" parent="1" source="d0MRfEor1ovRDdK-iBDy-10" target="d0MRfEor1ovRDdK-iBDy-2">
          <mxGeometry relative="1" as="geometry" />
        </mxCell>
        <mxCell id="d0MRfEor1ovRDdK-iBDy-10" value="偏移量=0" style="text;html=1;strokeColor=none;fillColor=none;align=center;verticalAlign=middle;whiteSpace=wrap;rounded=0;" vertex="1" parent="1">
          <mxGeometry x="110" y="230" width="60" height="30" as="geometry" />
        </mxCell>
        <mxCell id="d0MRfEor1ovRDdK-iBDy-15" value="" style="edgeStyle=orthogonalEdgeStyle;rounded=0;orthogonalLoop=1;jettySize=auto;html=1;" edge="1" parent="1" source="d0MRfEor1ovRDdK-iBDy-11" target="d0MRfEor1ovRDdK-iBDy-8">
          <mxGeometry relative="1" as="geometry" />
        </mxCell>
        <mxCell id="d0MRfEor1ovRDdK-iBDy-11" value="偏移量=3" style="text;html=1;strokeColor=none;fillColor=none;align=center;verticalAlign=middle;whiteSpace=wrap;rounded=0;" vertex="1" parent="1">
          <mxGeometry x="230" y="230" width="60" height="30" as="geometry" />
        </mxCell>
        <mxCell id="d0MRfEor1ovRDdK-iBDy-16" value="这是一个输出缓冲" style="text;html=1;strokeColor=none;fillColor=none;align=center;verticalAlign=middle;whiteSpace=wrap;rounded=0;" vertex="1" parent="1">
          <mxGeometry x="200" y="340" width="120" height="30" as="geometry" />
        </mxCell>
      </root>
    </mxGraphModel>
  </diagram>
</mxfile>
